# xmcd
#
# Track frame offsets:
#	150
#	14668
#	29502
#	42813
#	58330
#	70293
#	81189
#	102625
#	118955
#	129706
#	143006
#
# Disc length: 2086 seconds
#
# Revision: 1
# Processed by: cddbd v1.5.2PL0 Copyright (c) Steve Scherf et al.
# Submitted via: audiograbber 1.83.01
#
DISCID=a808240b
DTITLE=Suzanne Vega - Beauty and Crimer
DYEAR=1900
DGENRE=
TTITLE0=Zephyr and I
TTITLE1=Ludlow Street
TTITLE2=New York Is A Woman
TTITLE3=Pornographer's Dream
TTITLE4=Frank and Ava
TTITLE5=Edith Wharton's Figurines
TTITLE6=Bound
TTITLE7=Unbound
TTITLE8=As You Are Now
TTITLE9=Angel's Doorway
TTITLE10=Anniversary
EXTD=
EXTT0=
EXTT1=
EXTT2=
EXTT3=
EXTT4=
EXTT5=
EXTT6=
EXTT7=
EXTT8=
EXTT9=
EXTT10=
PLAYORDER=
